<?xml version="1.0" encoding="UTF-8"?>
<!-- Generator: Adobe Illustrator 23.0.0, SVG Export Plug-In . SVG Version: 6.00 Build 0)  -->
<svg version="1.1" id="Calque_1" xmlns="http://www.w3.org/2000/svg" xmlns:xlink="http://www.w3.org/1999/xlink" x="0px" y="0px" viewBox="0 0 232.7 229.9" style="enable-background:new 0 0 232.7 229.9;" xml:space="preserve">
<style type="text/css">
	.st0{fill:#E62042;}
	.st1{fill:#F4E3D6;}
	.st2{fill:#F7A500;}
	.st3{fill:#474747;}
	.st4{fill:none;stroke:#474747;stroke-linecap:round;stroke-linejoin:round;stroke-miterlimit:10;}
	.st5{fill:#FFFFFF;}
	.st6{fill:#46D2FC;}
	.st7{fill:#7D4E24;}
</style>
<g>
	<path class="st0" d="M219.8,115.6C219.8,58.4,173.4,12,116.2,12S12.6,58.4,12.6,115.6c0,45.5,29.4,84.2,70.2,98.1l9.4-36.9   l48.6,1.6l11.9,34.3C191.9,197.9,219.8,160,219.8,115.6z"/>
	<path class="st1" d="M92.1,176.8l-9.4,36.9c10.5,3.6,21.7,5.5,33.4,5.5c12.8,0,25.1-2.3,36.5-6.6l-11.9-34.3L92.1,176.8z"/>
</g>
<path class="st2" d="M76.5,62.9c0,0-7.5-27.6,13.5-27.6s48.6-2.3,58.8,7.8C158.9,53.3,162,65.5,162,87.6s0,70.5,0,70.5  s-10,33.5-33.5,33.5s-17.2,0-17.2,0S70,193.3,70,149.5S67.6,62.9,76.5,62.9z"/>
<path class="st1" d="M78.3,72c0,0,3.9,4.7,26.5,4.7s47.8-3.8,47.8,12s0,42.6,0,42.6s1.7,21.6-11.7,21.6c-5.6-1.7-12.1-6.5-22.6-6.5  s-19.7,0.5-24.2,4.9s-11.3,2.2-13-6C79.5,137.1,78.3,124.9,78.3,72z"/>
<ellipse class="st3" cx="99.1" cy="118" rx="3.6" ry="6.8"/>
<ellipse class="st3" cx="131.6" cy="118" rx="3.6" ry="6.8"/>
<path class="st4" d="M114.6,117.1l-1.7,16c-0.1,1.4,0.6,2.7,1.9,3.3l3.1,1.4"/>
<path class="st5" d="M98.8,155.9h32.8c-0.4,8.7-7.7,15.6-16.4,15.6C106.5,171.5,99.2,164.6,98.8,155.9z"/>
<path class="st6" d="M69.9,108.7c9.7-6.8,24.6-14.9,43.1-15.4c21.7-0.5,38.8,9.5,49.1,17.2V86.4c-9.6-7.8-27-19.2-49.3-18.1  c-19,1-33.9,10.6-43,18.1L69.9,108.7z"/>
<ellipse class="st1" cx="83.3" cy="110.7" rx="10.1" ry="9.5"/>
<ellipse class="st1" cx="147.2" cy="110.7" rx="10.1" ry="9.5"/>
<g>
	<path class="st7" d="M89,99.4c1.4-0.4,2.8-0.7,4.2-1.1c1.4-0.3,2.8-0.6,4.2-0.8c2.8-0.5,5.7-0.8,8.6-0.8l-0.1,5   c-2.6-0.1-5.3,0-7.9,0.3c-1.3,0.1-2.7,0.3-4,0.5c-1.3,0.2-2.7,0.5-3.9,0.7L89,99.4z"/>
</g>
<g>
	<path class="st7" d="M140.3,103.3c-1.2-0.3-2.6-0.5-3.9-0.7c-1.3-0.2-2.7-0.4-4-0.5c-2.7-0.3-5.3-0.4-7.9-0.3l-0.1-5   c2.9,0.1,5.8,0.3,8.6,0.8c1.4,0.2,2.8,0.5,4.2,0.8c1.4,0.3,2.7,0.6,4.2,1.1L140.3,103.3z"/>
</g>
</svg>