<?xml version="1.0" encoding="utf-8"?>
<!-- Generator: Adobe Illustrator 23.0.0, SVG Export Plug-In . SVG Version: 6.00 Build 0)  -->
<svg version="1.1" id="Calque_1" xmlns="http://www.w3.org/2000/svg" xmlns:xlink="http://www.w3.org/1999/xlink" x="0px" y="0px"
	 viewBox="0 0 232.7 229.9" style="enable-background:new 0 0 232.7 229.9;" xml:space="preserve">
<style type="text/css">
	.st0{fill:#E62042;}
	.st1{fill:#F4E3D6;}
	.st2{fill:#F7A500;}
	.st3{fill:#474747;}
	.st4{fill:none;stroke:#474747;stroke-linecap:round;stroke-linejoin:round;stroke-miterlimit:10;}
	.st5{fill:#FFFFFF;}
	.st6{fill:#46D2FC;}
	.st7{fill:#7D4E24;}
</style>
<g>
	<path class="st0" d="M219.8,115.6C219.8,58.4,173.4,12,116.2,12S12.6,58.4,12.6,115.6c0,45.5,29.4,84.2,70.2,98.1l9.4-36.9
		l48.6,1.6l11.9,34.3C191.9,197.9,219.8,160,219.8,115.6z"/>
	<path class="st1" d="M92.1,176.8l-9.4,36.9c10.5,3.6,21.7,5.5,33.4,5.5c12.8,0,25.1-2.3,36.5-6.6l-11.9-34.3L92.1,176.8z"/>
</g>
<path class="st2" d="M76.5,62.9c0,0-7.5-27.6,13.5-27.6s48.6-2.3,58.8,7.8C158.9,53.3,162,65.5,162,87.6s0,70.5,0,70.5
	s-10,33.5-33.5,33.5s-17.2,0-17.2,0S70,193.3,70,149.5S67.6,62.9,76.5,62.9z"/>
<path class="st1" d="M78.3,72c0,0,3.9,4.7,26.5,4.7s47.8-3.8,47.8,12s0,42.6,0,42.6s1.7,21.6-11.7,21.6c-5.6-1.7-12.1-6.5-22.6-6.5
	s-19.7,0.5-24.2,4.9s-11.3,2.2-13-6C79.5,137.1,78.3,124.9,78.3,72z"/>
<ellipse class="st3" cx="99.1" cy="118" rx="3.6" ry="6.8"/>
<ellipse class="st3" cx="131.6" cy="118" rx="3.6" ry="6.8"/>
<path class="st4" d="M114.6,117.1l-1.7,16c-0.1,1.4,0.6,2.7,1.9,3.3l3.1,1.4"/>
<path class="st5" d="M98.8,155.9h32.8c-0.4,8.7-7.7,15.6-16.4,15.6C106.5,171.5,99.2,164.6,98.8,155.9z"/>
<path class="st6" d="M69.9,108.7c9.7-6.8,24.6-14.9,43.1-15.4c21.7-0.5,38.8,9.5,49.1,17.2V86.4c-9.6-7.8-27-19.2-49.3-18.1
	c-19,1-33.9,10.6-43,18.1L69.9,108.7z"/>
<ellipse class="st1" cx="83.3" cy="110.7" rx="10.1" ry="9.5"/>
<ellipse class="st1" cx="147.2" cy="110.7" rx="10.1" ry="9.5"/>
<g>
	<path class="st7" d="M89,99.4c1.4-0.4,2.8-0.7,4.2-1.1c1.4-0.3,2.8-0.6,4.2-0.8c2.8-0.5,5.7-0.8,8.6-0.8l-0.1,5
		c-2.6-0.1-5.3,0-7.9,0.3c-1.3,0.1-2.7,0.3-4,0.5c-1.3,0.2-2.7,0.5-3.9,0.7L89,99.4z"/>
</g>
<g>
	<path class="st7" d="M140.3,103.3c-1.2-0.3-2.6-0.5-3.9-0.7c-1.3-0.2-2.7-0.4-4-0.5c-2.7-0.3-5.3-0.4-7.9-0.3l-0.1-5
		c2.9,0.1,5.8,0.3,8.6,0.8c1.4,0.2,2.8,0.5,4.2,0.8c1.4,0.3,2.7,0.6,4.2,1.1L140.3,103.3z"/>
</g>
<g>
	<path class="st3" d="M83.3,213.7l0.4-1.5c-0.1-0.1-0.3-0.1-0.4-0.2l9.4-48.3l48.6,2l11.9,44.8c-0.2,0.1-0.4,0.2-0.6,0.3l0.6,1.7
		c19.1-7.2,35.5-19.9,47.3-36.1c-1.6-6.8-5.8-15.3-12.4-28.8c-8.2-16.6-9.6-16.4-11.9-23.8c-4.8-15.4-0.4-21.7-2.1-36.1
		c-0.5-4.2-3.6-30.9-24.6-45.6c-16.5-11.5-39.8-12.8-57.9-3.3C69.3,50.7,63.2,74.7,62.5,78c-3.5,15,2,20.2-2.9,43.1
		c-1.2,5.6-3.1,14.2-7.8,24.6c-7.6,16.7-13.2,17.7-15.6,28.3c-0.4,1.8-0.7,3.7-0.8,5.6C47.6,195.3,64.2,207.2,83.3,213.7z"/>
	<path class="st2" d="M51.8,145.7c4.7-10.4,6.6-19.1,7.8-24.6C64.5,98.2,58.9,93,62.5,78c0.8-3.3,6.8-27.2,29.2-39
		c18.1-9.5,41.5-8.2,57.9,3.3c21.1,14.7,24.2,41.4,24.6,45.6c1.7,14.5-2.7,20.7,2.1,36.1c2.3,7.5,3.7,7.3,11.9,23.8
		c6.6,13.4,10.8,22,12.4,28.8c12.5-17.1,19.8-38.1,19.8-60.9C220.4,58.4,174,12,116.8,12S13.2,58.4,13.2,115.6
		c0,24.2,8.3,46.5,22.2,64.1c0.1-1.9,0.4-3.8,0.8-5.6C38.6,163.5,44.2,162.4,51.8,145.7z"/>
	<path class="st1" d="M99.7,217.4c5.6,1.2,11.3,1.8,17.1,1.8c6.5,0,12.9-0.8,19-2.3c-4.1-2.5-5.6-4.8-11.7-5.9
		C114,209.2,108.5,213.7,99.7,217.4z"/>
	<path class="st1" d="M141.3,178.3l-48.6-1.6l-9,35.4c5.2,2.3,10.5,4,16,5.2c8.8-3.7,14.3-8.2,24.4-6.4c6.1,1.1,7.6,3.4,11.7,5.9
		c5.8-1.4,11.4-3.5,16.8-6.1L141.3,178.3z"/>
	<path class="st3" d="M141.3,165.8l-48.6-2L83.3,212c0.1,0.1,0.3,0.1,0.4,0.2l9-35.4l48.6,1.6l11.3,32.5c0.2-0.1,0.4-0.2,0.6-0.3
		L141.3,165.8z"/>
</g>
<path class="st1" d="M80.9,90.3c-2,16.6-3.3,37.8-0.5,56.6c2,13.2,7.7,20.1,17.4,23.6c9.3,3.4,26.6,4.8,39.8,0.6
	c9.5-3,15.3-12.5,17.7-25.2c2.6-13.7,3.5-30.4,0.2-55.9c-2.2-16.8-13.1-29.1-25.7-29.1h-23.1C93.9,60.9,83,73.3,80.9,90.3z"/>
<polyline class="st1" points="91.3,182.1 95.6,163.7 137.5,163.7 143,183.2 "/>
<path class="st0" d="M72.5,108.7c9.5-6.8,24.1-14.9,42.3-15.4c21.3-0.5,38.1,9.5,48.2,17.2V86.4c-9.4-7.8-26.5-19.2-48.4-18.1
	c-18.7,1-33.3,10.6-42.2,18.1L72.5,108.7z"/>
<path class="st1" d="M82.7,102.7c-5.1-0.6-9.4,2.2-10.2,5.5c-0.9,3.9,2.9,9.5,9.5,9.9C82.2,113,82.5,107.8,82.7,102.7z"/>
<path class="st1" d="M154.6,118.1c5.6-0.2,9.1-5.1,8.3-8.9c-0.7-3.1-4.4-5.8-8.8-5.4C154.2,108.5,154.4,113.3,154.6,118.1z"/>
<ellipse class="st3" cx="102.1" cy="115" rx="3.6" ry="6.8"/>
<ellipse class="st3" cx="134.6" cy="115" rx="3.6" ry="6.8"/>
<path class="st4" d="M117.6,114.1l-1.7,16c-0.1,1.4,0.6,2.7,1.9,3.3l3.1,1.4"/>
<path class="st5" d="M101.9,148.1h32.8c-0.4,8.7-7.7,15.6-16.4,15.6C109.7,163.7,102.4,156.8,101.9,148.1z"/>
</svg>
