<?xml version="1.0" encoding="utf-8"?>
<!-- Generator: Adobe Illustrator 23.0.0, SVG Export Plug-In . SVG Version: 6.00 Build 0)  -->
<svg version="1.1" id="Calque_1" xmlns="http://www.w3.org/2000/svg" xmlns:xlink="http://www.w3.org/1999/xlink" x="0px" y="0px"
	 viewBox="0 0 355.8 363.5" style="enable-background:new 0 0 355.8 363.5;" xml:space="preserve">
<style type="text/css">
	.st0{fill:#F9F9EF;}
	.st1{fill:#F7A500;}
	.st2{fill:none;stroke:#E62042;stroke-width:6;stroke-linecap:round;stroke-linejoin:round;}
	.st3{fill:#46D2F7;}
	.st4{fill:none;stroke:#E62042;stroke-width:9;stroke-linecap:round;stroke-linejoin:round;}
	.st5{fill:#FFFFFF;}
	.st6{font-family:'Circe-Bold';}
	.st7{font-size:11.2215px;}
	.st8{font-size:8px;}
	.st9{font-size:6.67px;}
</style>
<g id="base_fond">
	<rect y="-149.4" class="st0" width="359" height="647"/>
</g>
<g id="Calque_7">
	<path class="st1" d="M155.5,49.1l13.7,2.5l0.6,13.8l-11.7-1.5c-1.8-0.2-3.1-1.7-3-3.5L155.5,49.1z"/>
	<path class="st1" d="M163.7,39.9l5.4-0.1l-1.5,9l-8-0.6l0.2-5c0.1-1.9,1.6-3.4,3.5-3.3C163.4,39.9,163.5,39.9,163.7,39.9z"/>
	<line class="st2" x1="71.8" y1="47.8" x2="167.2" y2="49.8"/>
</g>
<g id="Zone">
	<path class="st1" d="M199.9,31.7l-28.6-0.1c-1.9-0.2-3.6,1.2-3.8,3c0,0.1,0,0.3,0,0.4l0.6,33.4v13.2l0.3,40.9l0.9,48V199
		c0,4-3.2,7.2-7.2,7.2h-34c-4,0-7.2,3.2-7.2,7.2c0,0.9,0.2,1.9,0.5,2.8l0,0c0.7,1.8,0.7,3.7,0,5.5l-2.7,6.7
		c-0.4,0.9-0.5,1.8-0.5,2.8l0.4,33.3c0,3.4-2.3,6.4-5.7,7.1l-7.2,1.6c-2.3,0.5-4.2,2.1-5.1,4.3l-9.4,22.8c-1.2,3-4.3,4.8-7.5,4.4
		l-67.3-7.7c-4-0.5-7.6,2.4-8,6.4c0,0.3,0,0.6,0,0.8v44.8c0,4,3.2,7.2,7.2,7.2c0,0,0.1,0,0.1,0l16.3-0.3c0.2,0,0.5,0,0.7,0l86.8-9.8
		c1.4-0.2,2.6-1.2,2.9-2.6l10.2-50.5c0.4-1.7,2-2.8,3.7-2.6l18.1-0.4c1.9,0.2,3.6-1.2,3.8-3c0-0.1,0-0.2,0-0.4l-6-64.2
		c0-1.9,1.5-3.4,3.4-3.4h44.8c1.9,0,3.4-1.5,3.4-3.4l-1.4-121.4l0.5-59.1C202.9,33.5,201.6,31.9,199.9,31.7z"/>
</g>
<g id="Maine">
	<path class="st3" d="M173.9,363.4v-71.7c0-2.8-2.3-5.1-5.1-5.1h-8.6c-2.7,0-4.9-2.1-5.1-4.8l-3.9-57.1c-0.2-2.8,1.9-5.3,4.7-5.5
		c0.1,0,0.2,0,0.4,0h36.1c2.8,0,5.1-2.3,5.1-5.1V16.7c0-2.8,2.3-5.1,5.1-5.1h5.8c2.8,0,5.1,2.3,5.1,5.1v263.4c0,2.6-2,4.9-4.6,5.1
		l-17.5,1.6c-2.6,0.2-4.6,2.5-4.6,5.1v71.6c0,2.8-2.3,5.1-5.1,5.1c0,0-0.1,0-0.1,0l-2.7-0.1C176.1,368.5,173.9,366.2,173.9,363.4z"
		/>
</g>
<g id="Zone_sport">
	<line class="st2" x1="98.5" y1="327.5" x2="112.2" y2="272.3"/>
	<path class="st1" d="M263.4,131.9l-3,26.3c-0.3,2.6,1.5,4.9,4.1,5.3l38.8,5c2.2,0.3,4.2-1,5-3c1.3-3.2,3.3-8.7,5.5-16.3
		c0.6-2,2.3-3.4,4.4-3.5c1.8-0.1,4.1-0.2,6.4-0.5c2.6-0.3,4.4-2.6,4.2-5.1l-1.4-16.3c-0.1-1.6-1-2.9-2.4-3.7
		c-2.2-1.3-6.4-2.8-13.3-2.6c-1,0-2,0.4-2.8,1c-2.9,2.2-10.8,8-18.4,10.8c-0.5,0.2-1.1,0.3-1.6,0.3l-14.3,0c-0.6,0-1.1-0.1-1.7-0.3
		l-3.2-1.2c-0.9-0.3-1.8-0.4-2.7-0.2l0,0C265.1,128.2,263.6,129.9,263.4,131.9z"/>
	<path class="st1" d="M230.6,91.7l-1.4,29.6c-0.1,1.9,1.4,3.5,3.3,3.6c0,0,0,0,0,0l31.2,1.3c1.8,0.1,3.4-1.3,3.5-3.1l2.7-28.9
		c0.2-1.9-1.2-3.5-3.1-3.7c0,0-0.1,0-0.1,0l-32.4-1.9C232.3,88.3,230.7,89.7,230.6,91.7C230.6,91.6,230.6,91.6,230.6,91.7z"/>
	<line class="st2" x1="153.1" y1="144.8" x2="190.9" y2="143.8"/>
</g>
<g id="Rues">
	<polyline class="st2" points="110,101 236.4,87.6 334.7,89.4 	"/>
	<line class="st2" x1="303.9" y1="20.8" x2="292.3" y2="87.3"/>
	<line class="st2" x1="237.4" y1="19.2" x2="241" y2="86.3"/>
	<line class="st2" x1="288.1" y1="72.1" x2="279.4" y2="88.4"/>
	<circle class="st2" cx="283.5" cy="109.2" r="7.6"/>
	<line class="st4" x1="-2.3" y1="334.6" x2="362.8" y2="308.6"/>
</g>
<text transform="matrix(1 0 0 1 162.4892 253.1251)" class="st5 st6 st7">La Maine</text>
<text transform="matrix(0.9978 -6.656208e-02 6.656208e-02 0.9978 154.2193 326.2514)" class="st5 st6 st8">Pont de la Basse-Chaine</text>
<text transform="matrix(0.9952 -9.800117e-02 9.800117e-02 0.9952 182.3692 95.5721)" class="st5 st6 st9">Pont de Verdun</text>
</svg>
