<?xml version="1.0" encoding="utf-8"?>
<!-- Generator: Adobe Illustrator 23.0.0, SVG Export Plug-In . SVG Version: 6.00 Build 0)  -->
<svg version="1.1" xmlns="http://www.w3.org/2000/svg" xmlns:xlink="http://www.w3.org/1999/xlink" x="0px" y="0px"
	 viewBox="0 0 100 125" style="enable-background:new 0 0 100 125;" xml:space="preserve">
<style type="text/css">
	.st0{fill:#FFFFFF;}
</style>
<g id="Calque_2">
</g>
<g id="Calque_1">
	<g>
		<path class="st0" d="M60.5,37.8h-21c-1.3,0-2.4,1.1-2.4,2.4v45.6c0,1.3,1.1,2.4,2.4,2.4h21.1c1.3,0,2.4-1.1,2.4-2.4V40.2
			C62.9,38.9,61.8,37.8,60.5,37.8z"/>
		<path class="st0" d="M25.9,55.1h-21c-1.3,0-2.4,1.1-2.4,2.4v28.3c0,1.3,1.1,2.4,2.4,2.4H26c1.3,0,2.4-1.1,2.4-2.4V57.5
			C28.3,56.2,27.2,55.1,25.9,55.1z"/>
		<path class="st0" d="M8.8,41.7c0.3,0.3,0.4,0.6,0.3,1l-0.6,5c-0.1,1,0.9,1.7,1.8,1.3l4.6-2.1c0.3-0.2,0.7-0.2,1.1,0l4.6,2.1
			c0.9,0.4,1.9-0.3,1.8-1.3l-0.6-5c0-0.4,0.1-0.7,0.3-1l3.4-3.7c0.7-0.7,0.3-1.9-0.7-2.1l-5-1c-0.4-0.1-0.7-0.3-0.9-0.6l-2.5-4.4
			c-0.5-0.9-1.7-0.9-2.2,0l-2.5,4.4c-0.2,0.3-0.5,0.6-0.9,0.6l-5,1c-1,0.2-1.4,1.4-0.7,2.1L8.8,41.7z"/>
		<path class="st0" d="M95.1,55.1h-21c-1.3,0-2.4,1.1-2.4,2.4v28.3c0,1.3,1.1,2.4,2.4,2.4h21.1c1.3,0,2.4-1.1,2.4-2.4V57.5
			C97.5,56.2,96.4,55.1,95.1,55.1z"/>
		<path class="st0" d="M78,41.7c0.3,0.3,0.4,0.6,0.3,1l-0.6,5c-0.1,1,0.9,1.7,1.8,1.3l4.6-2.1c0.3-0.2,0.7-0.2,1.1,0l4.6,2.1
			c0.9,0.4,1.9-0.3,1.8-1.3l-0.6-5c0-0.4,0.1-0.7,0.3-1l3.5-3.7c0.7-0.7,0.3-1.9-0.7-2.1l-5-1c-0.4-0.1-0.7-0.3-0.9-0.6l-2.5-4.4
			c-0.5-0.9-1.7-0.9-2.2,0L81,34.3c-0.2,0.3-0.5,0.6-0.9,0.6l-5,1c-1,0.2-1.4,1.4-0.7,2.1L78,41.7z"/>
		<path class="st0" d="M43.4,24.4c0.3,0.3,0.4,0.6,0.3,1l-0.6,5c-0.1,1,0.9,1.7,1.8,1.3l4.6-2.1c0.3-0.2,0.7-0.2,1.1,0l4.6,2.1
			c0.9,0.4,1.9-0.3,1.8-1.3l-0.6-5c0-0.4,0.1-0.7,0.3-1l3.5-3.7c0.7-0.7,0.3-1.9-0.7-2.1l-5-1c-0.4-0.1-0.7-0.3-0.9-0.6l-2.5-4.4
			c-0.5-0.9-1.7-0.9-2.2,0L46.4,17c-0.2,0.3-0.5,0.6-0.9,0.6l-5,1c-1,0.2-1.4,1.4-0.7,2.1L43.4,24.4z"/>
	</g>
</g>
</svg>
