<?xml version="1.0" encoding="utf-8"?>
<!-- Generator: Adobe Illustrator 23.0.0, SVG Export Plug-In . SVG Version: 6.00 Build 0)  -->
<svg version="1.1" id="Calque_1" xmlns="http://www.w3.org/2000/svg" xmlns:xlink="http://www.w3.org/1999/xlink" x="0px" y="0px"
	 viewBox="0 0 595.3 841.9" style="enable-background:new 0 0 595.3 841.9;" xml:space="preserve">
<style type="text/css">
	.st0{fill:#E62445;}
</style>
<path class="st0" d="M363.9,410.2l-0.3,0c3.7-5.9,5.9-13,5.9-20.5c0-21.3-17.2-38.5-38.5-38.5c-14.1,0-26.5,7.6-33.2,19
	c-6.7-11.4-19.1-19-33.2-19c-21.3,0-38.5,17.2-38.5,38.5c0,6.7,1.7,13,4.7,18.5l-0.2,0l0.8,1c1.8,3,4,5.8,6.5,8.2l59.3,75l62.4-76.9
	c0.9-1,1.8-2.1,2.6-3.2L363.9,410.2z M297.8,409.3C297.8,409.3,297.8,409.3,297.8,409.3L297.8,409.3
	C297.8,409.3,297.8,409.3,297.8,409.3z"/>
</svg>
