<?xml version="1.0" encoding="UTF-8"?>
<!-- Generator: Adobe Illustrator 23.0.0, SVG Export Plug-In . SVG Version: 6.00 Build 0)  -->
<svg version="1.1" id="Calque_1" xmlns="http://www.w3.org/2000/svg" xmlns:xlink="http://www.w3.org/1999/xlink" x="0px" y="0px" viewBox="0 0 336.7 123.9" style="enable-background:new 0 0 336.7 123.9;" xml:space="preserve">
<style type="text/css">
	.st0{fill:#FFFFFF;}
	.st1{fill:#E62042;}
</style>
<g>
	<g>
		<polygon class="st0" points="78.9,39.2 83.8,43.3 76.9,47.8 69.3,41.6   "/>
		<polygon class="st0" points="98.5,39 94.6,38.1 94.8,35.7 98.1,34.7   "/>
		<polygon class="st0" points="79.2,69.1 76.5,69.3 77.9,66.5 81.4,66.2   "/>
		<polygon class="st0" points="85.1,28 82.4,28.2 83.8,25.4 87.3,25.2   "/>
		<polygon class="st0" points="96.7,57.6 94.1,57.8 95.4,55 99,54.8   "/>
		<polygon class="st0" points="57.8,57.4 61,59 58,62.3 53.1,59.9   "/>
	</g>
	<polygon class="st0" points="125.3,102.3 129.3,101.5 129,99 125.7,98  "/>
	<polygon class="st0" points="96.2,102.3 100.2,101.5 99.9,99 96.6,98  "/>
	<polygon class="st0" points="115.7,36.5 118.4,36.7 117,33.9 113.5,33.6  "/>
	<polygon class="st0" points="111.8,83.5 116,83.7 116,79.4 110.9,79.3  "/>
	<polygon class="st0" points="130,29.8 133.3,29.9 133.3,26.5 129.3,26.4  "/>
</g>
<g>
	<path class="st1" d="M45.9,74.6c-1.3,0.3-2.5,0.5-3.5,0.5c-1.3-3.6,1.9-12.5,2.7-14.3c0.9-2,0.2-2.9,0.2-2.9l-5.9-3.9   c0,0-7.1,9.8-14.4,11c-2.5-3.3,1.5-14.2,2.5-16.1l-5-5.9c-3.9,5.3-7.8,14.8-4.3,19.5c0.7,1,1.5,1.7,2.3,2.2   c2.5,1.8,9.6,6.2,16.1,1.2c-0.6,2.2-0.8,4.3-0.4,6c-0.1-0.2-0.2-0.4-0.2-0.5c1.8,5.5,3.5,6.6,12,6.9c8,0.3,6.7,13,6.7,13l4.3-6.3   C58.9,85.1,55.1,72.4,45.9,74.6z"/>
	<path class="st0" d="M35.9,71.6C35.9,71.6,35.9,71.5,35.9,71.6C35.9,71.5,35.9,71.5,35.9,71.6z"/>
	<path class="st1" d="M314.8,41.6l-5,5.9c0.9,2,5,12.8,2.5,16.1c-7.3-1.2-14.4-11-14.4-11l-5.9,3.9c0,0-0.7,0.9,0.2,2.9   c0.8,1.7,4,10.7,2.7,14.3c-1,0-2.2-0.2-3.5-0.5c-9.3-2.2-13.1,10.5-13.1,10.5l4.3,6.3c0,0-1.2-12.7,6.7-13c8.6-0.3,10.2-1.4,12-6.9   c0,0.1-0.1,0.2-0.2,0.5c0.4-1.7,0.2-3.8-0.4-6c6.5,4.9,13.6,0.6,16.1-1.2c0.8-0.5,1.5-1.2,2.3-2.2C322.7,56.4,318.7,47,314.8,41.6z   "/>
	<polygon class="st0" points="245.3,41.8 252.3,46.3 259.8,40.1 250.3,37.7  "/>
	<polygon class="st0" points="234.3,34.2 231.1,33.2 230.6,37.5 234.6,36.6  "/>
	<polygon class="st0" points="247.7,64.7 249.9,67.6 252.6,67.8 251.2,65  "/>
	<polygon class="st0" points="245.4,23.9 241.8,23.7 244,26.5 246.7,26.8  "/>
	<polygon class="st0" points="230.2,53.3 232.4,56.1 235,56.3 233.7,53.5  "/>
	<polygon class="st0" points="276,58.4 271.3,55.9 268.1,57.6 271.1,60.8  "/>
	<polygon class="st0" points="229.2,97.5 229,100 232.9,100.8 232.5,96.5  "/>
	<polygon class="st0" points="284.1,25.2 280.5,25.5 279.2,28.3 281.9,28.1  "/>
	<polygon class="st0" points="237.7,83.2 241.1,83.1 241.8,79.8 237.8,79.9  "/>
</g>
</svg>