<?xml version="1.0" encoding="UTF-8"?>
<!-- Generator: Adobe Illustrator 23.0.0, SVG Export Plug-In . SVG Version: 6.00 Build 0)  -->
<svg version="1.1" id="Calque_1" xmlns="http://www.w3.org/2000/svg" xmlns:xlink="http://www.w3.org/1999/xlink" x="0px" y="0px" viewBox="0 0 512 640" style="enable-background:new 0 0 512 640;" xml:space="preserve">
<style type="text/css">
	.st0{fill:#FFFFFF;}
</style>
<path class="st0" d="M511.2,78.4H411V39H97v39.3H0.8H0l0.8,39.3c6.2,82.1,51,153.4,116.3,195.8c21,37.4,56.9,65.4,99.7,75.8v103.6  L116.6,551h280.2l-101.6-58.1V388.2c39.5-10.7,72.8-36.5,93.3-70.8c68.7-41.8,116.2-115,122.6-199.7l0.8-39.3L511.2,78.4L511.2,78.4  z M56.3,182.5c-8.8-20.8-14.1-42.5-16.1-64.8H97v117h0c0,0.6,0,1.1,0,1.7c0,3.2,0.1,6.3,0.3,9.5C80,227.2,66.1,205.9,56.3,182.5z   M304.5,280L256,254.3L207.5,280l9.3-54.5l-39.3-38.6l54.3-7.9l24.3-49.6l24.3,49.6l54.2,7.9l-39.3,38.6L304.5,280z M455.7,182.5  c-10.7,25.3-26,48.2-45.3,67.8c0.4-4.6,0.6-9.2,0.6-14c0-0.6,0-1.1,0-1.7l0,0v-117h60.9C469.9,140,464.5,161.8,455.7,182.5z"/>
</svg>