<?xml version="1.0" encoding="utf-8"?>
<!-- Generator: Adobe Illustrator 23.0.0, SVG Export Plug-In . SVG Version: 6.00 Build 0)  -->
<svg version="1.1" id="Calque_1" xmlns="http://www.w3.org/2000/svg" xmlns:xlink="http://www.w3.org/1999/xlink" x="0px" y="0px"
	 viewBox="0 0 12 17.5" style="enable-background:new 0 0 12 17.5;" xml:space="preserve">
<style type="text/css">
	.st0{fill-rule:evenodd;clip-rule:evenodd;fill:#FFFFFF;}
</style>
<title>Combined Shape</title>
<desc>Created with Sketch.</desc>
<g transform="translate(-2.000000, -1.000000)">
	<path class="st0" d="M10.1,7.3l-1-1l1.7-1.7l0.1-0.1l0.6-1.7L9.8,3.5L9.7,3.5L8,5.3L6.3,3.5L6.2,3.5L4.5,2.8l0.6,1.7l0.1,0.1
		l1.7,1.7l-1,1L5.6,7C5.5,6.9,5.3,6.9,5.2,7c-0.1,0.1-0.1,0.3,0,0.4l0.3,0.3L4.5,8.7C4.2,9,4.2,9.5,4.5,9.8c0.3,0.3,0.8,0.3,1.1,0
		l1.1-1.1L7,9.1c0.1,0.1,0.3,0.1,0.4,0c0.1-0.1,0.1-0.3,0-0.4L7,8.4l1-1l1,1L8.7,8.7C8.6,8.8,8.6,9,8.7,9.1c0.1,0.1,0.3,0.1,0.4,0
		l0.3-0.3l1.1,1.1c0.3,0.3,0.8,0.3,1.1,0c0.3-0.3,0.3-0.8,0-1.1l-1.1-1.1l0.3-0.3c0.1-0.1,0.1-0.3,0-0.4c-0.1-0.1-0.3-0.1-0.4,0
		L10.1,7.3z M14,5h-1v0.5C13,5.8,13.2,6,13.5,6H14v1c0,3.3-2.5,6.8-5.7,7.9L8,15l-0.3-0.1C4.5,13.8,2,10.3,2,7V6h0.5
		C2.8,6,3,5.8,3,5.5V5H2V2h1V1h10v1h1V5z"/>
</g>
</svg>
