<?xml version="1.0" encoding="UTF-8"?>
<!-- Generator: Adobe Illustrator 23.0.0, SVG Export Plug-In . SVG Version: 6.00 Build 0)  -->
<svg version="1.1" id="Calque_1" xmlns="http://www.w3.org/2000/svg" xmlns:xlink="http://www.w3.org/1999/xlink" x="0px" y="0px" viewBox="0 0 382 153.8" style="enable-background:new 0 0 382 153.8;" xml:space="preserve">
<style type="text/css">
	.st0{fill:url(#SVGID_1_);}
	.st1{opacity:0.5;fill:url(#SVGID_2_);}
	.st2{fill:url(#SVGID_3_);}
	.st3{fill:url(#SVGID_4_);}
	.st4{fill:#C04A3B;}
	.st5{fill:none;stroke:#FFFFFF;stroke-width:11;stroke-linecap:round;stroke-miterlimit:10;}
</style>
<g>
	<g>
		
			<linearGradient id="SVGID_1_" gradientUnits="userSpaceOnUse" x1="319.9719" y1="1.3853" x2="323.5754" y2="83.282" gradientTransform="matrix(0.9128 0.4085 -0.4085 0.9128 52.4444 -126.5654)">
			<stop offset="0" style="stop-color:#FCFCFC"/>
			<stop offset="0.3897" style="stop-color:#FBFAF9"/>
			<stop offset="0.6378" style="stop-color:#F6F3F0"/>
			<stop offset="0.8456" style="stop-color:#EEE7E1"/>
			<stop offset="0.9946" style="stop-color:#E6DAD1"/>
		</linearGradient>
		<circle class="st0" cx="322.5" cy="59.5" r="31.4"/>
		
			<linearGradient id="SVGID_2_" gradientUnits="userSpaceOnUse" x1="320.3035" y1="8.9214" x2="323.5835" y2="83.466" gradientTransform="matrix(0.9128 0.4085 -0.4085 0.9128 52.4444 -126.5654)">
			<stop offset="0" style="stop-color:#FCFCFC;stop-opacity:0"/>
			<stop offset="0.5108" style="stop-color:#FBFAFA;stop-opacity:0.5136"/>
			<stop offset="0.7109" style="stop-color:#F7F5F3;stop-opacity:0.7147"/>
			<stop offset="0.856" style="stop-color:#F1EBE6;stop-opacity:0.8606"/>
			<stop offset="0.9745" style="stop-color:#E8DDD5;stop-opacity:0.9797"/>
			<stop offset="0.9946" style="stop-color:#E6DAD1"/>
		</linearGradient>
		<path class="st1" d="M315.3,28.9c-9.2,2.2-17.3,8.5-21.5,17.8c-7.1,15.9,0,34.5,15.9,41.6c15.9,7.1,34.5,0,41.6-15.9    c3.8-8.6,3.5-17.9-0.1-25.8c3.7,8.2,0.3,20.7-4.6,27.6c-5.2,7.2-14.6,12.3-23.6,12c-11-0.3-22.2-7.8-26-18.3    c-2.9-8.1-1.7-17,2.3-24.5C303,36.3,308.7,31.9,315.3,28.9z"/>
		
			<linearGradient id="SVGID_3_" gradientUnits="userSpaceOnUse" x1="302.7502" y1="10.4426" x2="306.6812" y2="88.0807" gradientTransform="matrix(0.9128 0.4085 -0.4085 0.9128 52.4444 -126.5654)">
			<stop offset="0.3666" style="stop-color:#E8E9EA"/>
			<stop offset="0.4528" style="stop-color:#D7D9DA"/>
			<stop offset="0.691" style="stop-color:#ADB4B5"/>
			<stop offset="0.8779" style="stop-color:#949EA0"/>
			<stop offset="0.9892" style="stop-color:#8B9798"/>
		</linearGradient>
		<path class="st2" d="M301.2,64.8c-2.5,2.1-5.2,3.9-8.2,5.4c0.2,0.5,0.3,0.9,0.5,1.4c3.1-1.5,6-3.4,8.6-5.6    c11.9-10.2,17.6-24.1,16-37.6c-0.5,0.1-1,0.2-1.5,0.2C318.2,41.6,312.6,55,301.2,64.8z"/>
		
			<linearGradient id="SVGID_4_" gradientUnits="userSpaceOnUse" x1="330.3623" y1="18.2075" x2="348.7071" y2="85.0351" gradientTransform="matrix(0.9128 0.4085 -0.4085 0.9128 52.4444 -126.5654)">
			<stop offset="0.3666" style="stop-color:#E8E9EA"/>
			<stop offset="0.4528" style="stop-color:#D7D9DA"/>
			<stop offset="0.691" style="stop-color:#ADB4B5"/>
			<stop offset="0.8779" style="stop-color:#949EA0"/>
			<stop offset="0.9892" style="stop-color:#8B9798"/>
		</linearGradient>
		<path class="st3" d="M335.1,88.3c-0.7-2.9-1.1-5.8-1.2-8.8c-0.3-14.8,5.8-27.7,16.1-35.3c-0.2-0.4-0.5-0.9-0.8-1.3    c-10.8,7.8-17.1,21.2-16.8,36.6c0.1,3.2,0.5,6.3,1.3,9.3C334.2,88.7,334.7,88.5,335.1,88.3z"/>
		<g>
			<path class="st4" d="M333.2,83.1c-0.2-0.1-0.3-0.2-0.3-0.4c-1.1-2.8-3.3-3.3-3.4-3.3c-0.3-0.1-0.6-0.4-0.5-0.7     c0.1-0.3,0.4-0.6,0.7-0.5c0.1,0,2.2,0.4,3.6,2.6c0.4-0.9,1.3-2,2.9-2.6c0.3-0.1,0.7,0.1,0.8,0.4c0.1,0.3-0.1,0.7-0.4,0.8     c-2.3,0.8-2.5,3.1-2.5,3.2c0,0.3-0.2,0.5-0.5,0.6C333.4,83.1,333.3,83.1,333.2,83.1z"/>
			<path class="st4" d="M333,75.2c-0.2-0.1-0.3-0.2-0.4-0.5c-0.6-3-2.7-3.8-2.8-3.8c-0.3-0.1-0.5-0.5-0.4-0.8     c0.1-0.3,0.5-0.5,0.8-0.4c0.1,0,2.1,0.8,3.1,3.2c0.6-0.9,1.6-1.8,3.3-2.1c0.3-0.1,0.7,0.2,0.7,0.5c0.1,0.3-0.2,0.7-0.5,0.7     c-2.4,0.4-2.9,2.6-3,2.7c-0.1,0.3-0.3,0.5-0.6,0.5C333.2,75.3,333.1,75.3,333,75.2z"/>
			<path class="st4" d="M334.3,68.2c-0.2-0.1-0.3-0.3-0.4-0.5c-0.2-3.1-2.3-4.2-2.3-4.2c-0.3-0.2-0.4-0.5-0.3-0.8     c0.2-0.3,0.5-0.4,0.8-0.3c0.1,0,2,1,2.7,3.6c0.7-0.8,1.8-1.6,3.5-1.7c0.3,0,0.6,0.3,0.6,0.6c0,0.3-0.3,0.6-0.6,0.6     c-2.4,0.1-3.3,2.2-3.3,2.3c-0.1,0.3-0.4,0.4-0.7,0.4C334.4,68.2,334.4,68.2,334.3,68.2z"/>
			<path class="st4" d="M336.5,61.6c-0.2-0.1-0.4-0.3-0.4-0.6c0-3.1-2-4.3-2-4.3c-0.3-0.2-0.4-0.6-0.2-0.8c0.2-0.3,0.5-0.4,0.8-0.2     c0.1,0.1,1.9,1.1,2.5,3.7c0.7-0.7,1.9-1.5,3.6-1.4c0.3,0,0.6,0.3,0.6,0.6c0,0.3-0.3,0.6-0.6,0.6c-2.4-0.1-3.4,2-3.5,2.1     c-0.1,0.3-0.4,0.4-0.7,0.3C336.6,61.7,336.5,61.6,336.5,61.6z"/>
			<path class="st4" d="M339.2,55.5c-0.2-0.1-0.4-0.3-0.4-0.6c0.2-3-1.6-4.4-1.7-4.5c-0.3-0.2-0.3-0.6-0.1-0.9     c0.2-0.3,0.6-0.3,0.9-0.1c0.1,0.1,1.8,1.3,2.1,3.9c0.8-0.7,2-1.3,3.7-1.1c0.3,0,0.6,0.3,0.5,0.7c0,0.3-0.3,0.6-0.7,0.5     c-2.4-0.3-3.6,1.8-3.6,1.8C339.8,55.5,339.5,55.6,339.2,55.5C339.2,55.5,339.2,55.5,339.2,55.5z"/>
			<path class="st4" d="M343.3,49.6C343.2,49.6,343.2,49.6,343.3,49.6c-0.3-0.2-0.4-0.5-0.3-0.7c0.9-3-0.7-4.7-0.7-4.7     c-0.2-0.3-0.2-0.6,0-0.9c0.3-0.2,0.6-0.2,0.9,0c0.1,0.1,1.5,1.6,1.3,4.3c0.9-0.5,2.3-0.9,3.9-0.3c0.3,0.1,0.5,0.5,0.4,0.8     c-0.1,0.3-0.5,0.5-0.8,0.4c-2.3-0.8-3.9,1-3.9,1C343.8,49.7,343.5,49.7,343.3,49.6z"/>
		</g>
		<g>
			<path class="st4" d="M298.9,67.7c0.2,0.1,0.3,0.1,0.5,0c2.8-1.1,4.7,0.3,4.8,0.3c0.3,0.2,0.7,0.2,0.9-0.1     c0.2-0.3,0.2-0.7-0.1-0.9c-0.1-0.1-1.7-1.3-4.4-1c0.4-1,0.7-2.3,0-3.9c-0.1-0.3-0.5-0.5-0.8-0.3c-0.3,0.1-0.5,0.5-0.3,0.8     c1,2.2-0.6,3.9-0.7,4c-0.2,0.2-0.2,0.5-0.1,0.8C298.7,67.6,298.8,67.7,298.9,67.7z"/>
			<path class="st4" d="M304.9,62.7c0.2,0.1,0.4,0.1,0.6,0c2.6-1.5,4.7-0.5,4.7-0.4c0.3,0.2,0.7,0.1,0.9-0.3     c0.2-0.3,0.1-0.7-0.3-0.9c-0.1-0.1-1.9-1-4.5-0.2c0.3-1,0.3-2.4-0.6-3.8c-0.2-0.3-0.6-0.4-0.9-0.2c-0.3,0.2-0.4,0.6-0.2,0.9     c1.3,2,0,3.9,0,4c-0.2,0.2-0.1,0.6,0.1,0.8C304.7,62.6,304.8,62.6,304.9,62.7z"/>
			<path class="st4" d="M309.3,57c0.2,0.1,0.4,0.1,0.6-0.1c2.5-1.9,4.7-1,4.7-1c0.3,0.1,0.7,0,0.8-0.3c0.1-0.3,0-0.7-0.3-0.8     c-0.1,0-2.1-0.8-4.5,0.3c0.1-1,0-2.4-1.1-3.7c-0.2-0.3-0.6-0.3-0.9-0.1c-0.3,0.2-0.3,0.6-0.1,0.9c1.6,1.9,0.5,3.9,0.5,4     c-0.1,0.3-0.1,0.6,0.1,0.8C309.2,56.9,309.2,57,309.3,57z"/>
			<path class="st4" d="M312.7,51c0.2,0.1,0.5,0.1,0.7-0.1c2.3-2,4.5-1.4,4.6-1.4c0.3,0.1,0.7-0.1,0.8-0.4c0.1-0.3-0.1-0.7-0.4-0.8     c-0.1,0-2.1-0.6-4.4,0.7c0.1-1-0.2-2.4-1.3-3.7c-0.2-0.2-0.6-0.3-0.9,0c-0.2,0.2-0.3,0.6,0,0.9c1.7,1.8,0.8,3.9,0.7,4     c-0.1,0.3,0,0.6,0.2,0.7C312.6,50.9,312.7,51,312.7,51z"/>
			<path class="st4" d="M315.5,44.9c0.2,0.1,0.5,0.1,0.7-0.1c2.1-2.2,4.4-1.8,4.5-1.7c0.3,0.1,0.7-0.1,0.7-0.5     c0.1-0.3-0.1-0.7-0.5-0.7c-0.1,0-2.2-0.5-4.4,1c0-1-0.4-2.4-1.7-3.5c-0.3-0.2-0.6-0.2-0.9,0.1c-0.2,0.3-0.2,0.6,0.1,0.9     c1.8,1.6,1.1,3.9,1.1,3.9C315.1,44.4,315.2,44.7,315.5,44.9C315.5,44.9,315.5,44.9,315.5,44.9z"/>
			<path class="st4" d="M317.2,37.9C317.2,37.9,317.2,38,317.2,37.9c0.3,0.1,0.6,0,0.8-0.2c1.6-2.6,4-2.6,4-2.6     c0.3,0,0.6-0.3,0.6-0.6c0-0.3-0.3-0.6-0.6-0.6c-0.1,0-2.2,0-4,1.9c-0.2-1-0.9-2.3-2.4-3.1c-0.3-0.2-0.7-0.1-0.8,0.2     c-0.2,0.3-0.1,0.7,0.2,0.8c2.1,1.2,1.9,3.6,1.9,3.6C316.8,37.6,316.9,37.8,317.2,37.9z"/>
		</g>
	</g>
	<line class="st5" x1="235.8" y1="71.6" x2="148.1" y2="71.6"/>
	<line class="st5" x1="109.3" y1="25.2" x2="72" y2="25.2"/>
	<line class="st5" x1="52.6" y1="82.9" x2="22.5" y2="82.9"/>
	<line class="st5" x1="137.9" y1="132" x2="94.2" y2="132"/>
</g>
</svg>