<?xml version="1.0" encoding="utf-8"?>
<!-- Generator: Adobe Illustrator 23.0.0, SVG Export Plug-In . SVG Version: 6.00 Build 0)  -->
<svg version="1.1" id="Calque_1" xmlns="http://www.w3.org/2000/svg" xmlns:xlink="http://www.w3.org/1999/xlink" x="0px" y="0px"
	 viewBox="0 0 43.1 55.8" style="enable-background:new 0 0 43.1 55.8;" xml:space="preserve">
<style type="text/css">
	.st0{fill:#040504;}
	.st1{fill:#FFFFFF;}
</style>
<path class="st0" d="M41.4,21.8c0-10.8-8.8-19.6-19.6-19.6S2.2,11,2.2,21.8c0,16.1,19.6,32.3,19.6,32.3S41.4,37.8,41.4,21.8z"/>
<g>
	<path class="st1" d="M11.5,20.3h4.8v4.9c-1.1,1.1-3,1.7-4.5,1.7c-3.9,0-6.2-2.4-6.2-6.1c0-3.4,2.3-6.1,5.9-6.1
		c1.7,0,2.9,0.4,3.8,1.2l-0.9,1.7c-0.6-0.6-1.6-0.9-2.7-0.9c-2.3,0-4,1.5-4,4.2c0,2.5,1.6,4.2,4,4.2c0.9,0,2-0.4,2.5-0.8v-1.9h-2.9
		v-2.1H11.5z"/>
	<path class="st1" d="M23.6,14.6c3.5,0,6.2,2.4,6.2,6.1c0,3.6-2.7,6.1-6.2,6.1s-6.2-2.4-6.2-6.1C17.4,17.3,19.9,14.6,23.6,14.6z
		 M23.6,24.9c2.5,0,4-1.8,4-4.2c0-2.5-1.8-4.2-4-4.2c-2.3,0-4,1.7-4,4.2C19.6,23.1,21.3,24.9,23.6,24.9z"/>
	<path class="st1" d="M35.5,24.1c0.7,0,1.2,0.7,1.2,1.3c0,0.7-0.5,1.4-1.2,1.4c-0.8,0-1.4-0.7-1.4-1.4
		C34.1,24.8,34.6,24.1,35.5,24.1z M34.4,14.8h2.1v7.8h-2.1V14.8z"/>
</g>
</svg>
