<?xml version="1.0" encoding="utf-8"?>
<!-- Generator: Adobe Illustrator 23.0.0, SVG Export Plug-In . SVG Version: 6.00 Build 0)  -->
<svg version="1.1" id="Calque_1" xmlns="http://www.w3.org/2000/svg" xmlns:xlink="http://www.w3.org/1999/xlink" x="0px" y="0px"
	 viewBox="0 0 43.4 55.8" style="enable-background:new 0 0 43.4 55.8;" xml:space="preserve">
<style type="text/css">
	.st0{fill:#50DB0A;}
	.st1{fill:#FFFFFF;}
</style>
<path class="st0" d="M41.5,21.9c0-10.8-8.8-19.6-19.6-19.6S2.3,11.1,2.3,21.9c0,16.1,19.6,32.3,19.6,32.3S41.5,37.9,41.5,21.9z"/>
<g>
	<path class="st1" d="M34.7,29.2c0,6.2-7.3,5.4-10,3.9c-3.2,0.6-12.4,0.2-15.2-3.9c-0.6-0.9-0.7-1.9-0.3-2.9
		c0.9-2.2,3.1-6.9,5.7-9.4c3.5-3.4,5.5-6.1,6-6.7S22,8.7,23.6,9c1.5,0.2,4,1.1,3.7,1.8c-0.3,0.8-1.4,1.6-1.2,1.7
		c0.4,0.2,1,0.1,1,0.7c0,0.6-0.7,1.1-2.1,1.1c-1.2,0-2.2,0.4-3.9,0.6c-1.3,0.1-2.5,3.3-3.2,5.7c-0.4,1.6-0.8,3.3-1.1,4.3
		c-0.1,0.3,0.2,0.5,0.5,0.3c0.9-0.6,2.8-1.6,4.6-1.5c1.8,0.1,2.5,0.6,2.9,1c0.4,0.4,0.9,0.9,1.1,1.5c0.1,0.1,0.2,0.2,0.4,0.2
		c0.1,0,0.1,0,0.1,0c0.2-0.1,0.3-0.3,0.2-0.5c-0.2-0.5-0.5-0.9-0.8-1.2C28.9,22.6,34.7,23.3,34.7,29.2z"/>
</g>
</svg>
